<svg xmlns="http://www.w3.org/2000/svg" viewBox="0 0 400 500" width="400" height="500">
  <rect width="400" height="500" fill="#f3f0f5"/>
  <g transform="translate(200,250)" fill="none" stroke="#333" stroke-width="3" stroke-linecap="round" stroke-linejoin="round">
    <!-- Rain boots -->
    <!-- Left boot -->
    <path d="M-55,-60 L-55,30 L-55,40 Q-55,50 -45,50 L-5,50 Q5,50 5,40 L5,30 L5,-10 Q5,-15 0,-15 L-25,-15 L-25,-60 Z" fill="#333" opacity="0.15"/>
    <path d="M-55,-60 L-55,30 L-55,40 Q-55,50 -45,50 L-5,50 Q5,50 5,40 L5,30 L5,-10 Q5,-15 0,-15 L-25,-15 L-25,-60 Z"/>
    <!-- Boot top trim -->
    <path d="M-55,-50 L-25,-50"/>
    <!-- Sole -->
    <path d="M-58,45 Q-55,55 -5,55 Q8,55 8,45" stroke-width="2"/>
    <!-- Right boot (slightly offset) -->
    <path d="M15,-60 L15,30 L15,40 Q15,50 25,50 L65,50 Q75,50 75,40 L75,30 L75,-10 Q75,-15 70,-15 L45,-15 L45,-60 Z" fill="#333" opacity="0.15"/>
    <path d="M15,-60 L15,30 L15,40 Q15,50 25,50 L65,50 Q75,50 75,40 L75,30 L75,-10 Q75,-15 70,-15 L45,-15 L45,-60 Z"/>
    <!-- Boot top trim -->
    <path d="M15,-50 L45,-50"/>
    <!-- Sole -->
    <path d="M12,45 Q15,55 65,55 Q78,55 78,45" stroke-width="2"/>
  </g>
</svg>