<svg xmlns="http://www.w3.org/2000/svg" viewBox="0 0 400 500" width="400" height="500">
  <rect width="400" height="500" fill="#f0f3f5"/>
  <g transform="translate(200,250)" fill="none" stroke="#333" stroke-width="3" stroke-linecap="round" stroke-linejoin="round">
    <!-- Small/cute hoodie -->
    <path d="M-48,-65 L-70,-22 L-55,-8 L-42,-18 L-42,68 Q-42,75 -34,75 L34,75 Q42,75 42,68 L42,-18 L55,-8 L70,-22 L48,-65 L22,-65 Q12,-45 0,-48 Q-12,-45 -22,-65 Z" fill="#333" opacity="0.15"/>
    <path d="M-48,-65 L-70,-22 L-55,-8 L-42,-18 L-42,68 Q-42,75 -34,75 L34,75 Q42,75 42,68 L42,-18 L55,-8 L70,-22 L48,-65 L22,-65 Q12,-45 0,-48 Q-12,-45 -22,-65 Z"/>
    <!-- Hood -->
    <path d="M-22,-65 Q-32,-90 -15,-100 Q0,-108 15,-100 Q32,-90 22,-65"/>
    <!-- Kangaroo pocket -->
    <path d="M-28,20 L-28,45 Q-28,50 -23,50 L23,50 Q28,50 28,45 L28,20"/>
    <!-- Hood drawstrings -->
    <path d="M-8,-48 L-8,-35"/>
    <path d="M8,-48 L8,-35"/>
    <!-- Cute round ears on hood -->
    <circle cx="-22" cy="-92" r="8" fill="#333" opacity="0.1" stroke="#333" stroke-width="2"/>
    <circle cx="22" cy="-92" r="8" fill="#333" opacity="0.1" stroke="#333" stroke-width="2"/>
  </g>
</svg>