<svg xmlns="http://www.w3.org/2000/svg" viewBox="0 0 400 500" width="400" height="500">
  <rect width="400" height="500" fill="#f5f2f5"/>
  <g transform="translate(200,250)" fill="none" stroke="#333" stroke-width="3" stroke-linecap="round" stroke-linejoin="round">
    <!-- Pajama set - Top -->
    <path d="M-42,-100 L-60,-65 L-48,-55 L-38,-62 L-38,-15 Q-38,-10 -33,-10 L33,-10 Q38,-10 38,-15 L38,-62 L48,-55 L60,-65 L42,-100 L18,-100 Q8,-82 0,-85 Q-8,-82 -18,-100 Z" fill="#333" opacity="0.15"/>
    <path d="M-42,-100 L-60,-65 L-48,-55 L-38,-62 L-38,-15 Q-38,-10 -33,-10 L33,-10 Q38,-10 38,-15 L38,-62 L48,-55 L60,-65 L42,-100 L18,-100 Q8,-82 0,-85 Q-8,-82 -18,-100 Z"/>
    <!-- Neck -->
    <path d="M-18,-100 Q0,-78 18,-100"/>
    <!-- Buttons -->
    <circle cx="0" cy="-72" r="2.5" fill="#333"/>
    <circle cx="0" cy="-55" r="2.5" fill="#333"/>
    <circle cx="0" cy="-38" r="2.5" fill="#333"/>
    <!-- Pajama bottom -->
    <path d="M-40,5 Q-45,5 -45,10 L-48,45 Q-50,65 -52,85 Q-52,90 -47,90 L-15,90 Q-10,90 -10,85 L-5,50 L5,85 Q5,90 10,90 L42,90 Q47,90 47,85 Q45,65 43,45 L40,10 Q40,5 35,5 Z" fill="#333" opacity="0.15"/>
    <path d="M-40,5 Q-45,5 -45,10 L-48,45 Q-50,65 -52,85 Q-52,90 -47,90 L-15,90 Q-10,90 -10,85 L-5,50 L5,85 Q5,90 10,90 L42,90 Q47,90 47,85 Q45,65 43,45 L40,10 Q40,5 35,5 Z"/>
    <!-- Waistband -->
    <path d="M-45,15 L40,15"/>
    <!-- Moon on top -->
    <path d="M15,-60 Q25,-70 15,-80 Q28,-75 28,-65 Q28,-55 15,-60" fill="#333" opacity="0.2"/>
  </g>
</svg>