<svg xmlns="http://www.w3.org/2000/svg" viewBox="0 0 400 500" width="400" height="500">
  <rect width="400" height="500" fill="#f5f3f0"/>
  <g transform="translate(200,250)" fill="none" stroke="#333" stroke-width="3" stroke-linecap="round" stroke-linejoin="round">
    <!-- Cute T-shirt -->
    <path d="M-50,-65 L-72,-25 L-55,-10 L-42,-22 L-42,65 Q-42,73 -34,73 L34,73 Q42,73 42,65 L42,-22 L55,-10 L72,-25 L50,-65 L22,-65 Q12,-45 0,-48 Q-12,-45 -22,-65 Z" fill="#333" opacity="0.15"/>
    <path d="M-50,-65 L-72,-25 L-55,-10 L-42,-22 L-42,65 Q-42,73 -34,73 L34,73 Q42,73 42,65 L42,-22 L55,-10 L72,-25 L50,-65 L22,-65 Q12,-45 0,-48 Q-12,-45 -22,-65 Z"/>
    <!-- Round neck -->
    <path d="M-22,-65 Q0,-42 22,-65"/>
    <!-- Star on chest -->
    <path d="M0,-10 L4,2 L17,2 L7,10 L11,22 L0,15 L-11,22 L-7,10 L-17,2 L-4,2 Z" fill="#333" opacity="0.3"/>
  </g>
</svg>