<svg xmlns="http://www.w3.org/2000/svg" viewBox="0 0 400 500" width="400" height="500">
  <rect width="400" height="500" fill="#f5f0f3"/>
  <g transform="translate(200,250)" fill="none" stroke="#333" stroke-width="3" stroke-linecap="round" stroke-linejoin="round">
    <!-- Backpack -->
    <path d="M-50,-50 Q-55,-50 -55,-45 L-55,55 Q-55,65 -45,65 L45,65 Q55,65 55,55 L55,-45 Q55,-50 50,-50 Z" fill="#333" opacity="0.12"/>
    <path d="M-50,-50 Q-55,-50 -55,-45 L-55,55 Q-55,65 -45,65 L45,65 Q55,65 55,55 L55,-45 Q55,-50 50,-50 Z"/>
    <!-- Top flap -->
    <path d="M-50,-50 Q0,-62 50,-50"/>
    <!-- Front pocket -->
    <path d="M-30,5 L-30,45 Q-30,50 -25,50 L25,50 Q30,50 30,45 L30,5 Q30,0 25,0 L-25,0 Q-30,0 -30,5 Z"/>
    <!-- Pocket zip -->
    <path d="M-20,5 L20,5" stroke-width="2"/>
    <circle cx="20" cy="5" r="3" fill="#333" opacity="0.4"/>
    <!-- Straps -->
    <path d="M-35,-50 Q-45,-35 -55,-15" stroke-width="5" opacity="0.2"/>
    <path d="M35,-50 Q45,-35 55,-15" stroke-width="5" opacity="0.2"/>
    <!-- Handle -->
    <path d="M-12,-50 L-12,-62 Q0,-68 12,-62 L12,-50" stroke-width="4"/>
  </g>
</svg>