<svg xmlns="http://www.w3.org/2000/svg" viewBox="0 0 400 500" width="400" height="500">
  <rect width="400" height="500" fill="#f3f3f1"/>
  <g transform="translate(200,250)" fill="none" stroke="#333" stroke-width="3" stroke-linecap="round" stroke-linejoin="round">
    <!-- Shorts -->
    <path d="M-55,-60 Q-60,-60 -60,-55 L-60,-10 Q-60,30 -70,50 L-70,55 Q-70,60 -65,60 L-20,60 Q-15,60 -15,55 L-10,10 L5,55 Q5,60 10,60 L55,60 Q60,60 60,55 L60,50 Q50,30 50,-10 L50,-55 Q50,-60 45,-60 Z" fill="#333" opacity="0.15"/>
    <path d="M-55,-60 Q-60,-60 -60,-55 L-60,-10 Q-60,30 -70,50 L-70,55 Q-70,60 -65,60 L-20,60 Q-15,60 -15,55 L-10,10 L5,55 Q5,60 10,60 L55,60 Q60,60 60,55 L60,50 Q50,30 50,-10 L50,-55 Q50,-60 45,-60 Z"/>
    <!-- Waistband -->
    <path d="M-60,-45 L50,-45"/>
    <!-- Pockets -->
    <path d="M-50,-45 L-50,-25 L-35,-20"/>
    <path d="M40,-45 L40,-25 L25,-20"/>
  </g>
</svg>