<svg xmlns="http://www.w3.org/2000/svg" viewBox="0 0 400 500" width="400" height="500">
  <rect width="400" height="500" fill="#f0f0f5"/>
  <g transform="translate(200,250)" fill="none" stroke="#333" stroke-width="3" stroke-linecap="round" stroke-linejoin="round">
    <!-- Padding vest -->
    <path d="M-50,-80 L-50,75 Q-50,85 -40,85 L40,85 Q50,85 50,75 L50,-80 L25,-80 Q12,-58 0,-62 Q-12,-58 -25,-80 Z" fill="#333" opacity="0.15"/>
    <path d="M-50,-80 L-50,75 Q-50,85 -40,85 L40,85 Q50,85 50,75 L50,-80 L25,-80 Q12,-58 0,-62 Q-12,-58 -25,-80 Z"/>
    <!-- V-neck -->
    <path d="M-25,-80 Q0,-55 25,-80"/>
    <!-- Quilted horizontal lines -->
    <path d="M-50,-50 Q0,-42 50,-50" stroke-width="1.5" opacity="0.4"/>
    <path d="M-50,-20 Q0,-12 50,-20" stroke-width="1.5" opacity="0.4"/>
    <path d="M-50,10 Q0,18 50,10" stroke-width="1.5" opacity="0.4"/>
    <path d="M-50,40 Q0,48 50,40" stroke-width="1.5" opacity="0.4"/>
    <path d="M-50,65 Q0,73 50,65" stroke-width="1.5" opacity="0.4"/>
    <!-- Arm holes -->
    <path d="M-50,-80 Q-60,-50 -50,-20"/>
    <path d="M50,-80 Q60,-50 50,-20"/>
    <!-- Center zip -->
    <path d="M0,-62 L0,85"/>
    <rect x="-3" y="-20" width="6" height="8" rx="1" fill="#333" opacity="0.4"/>
  </g>
</svg>