<svg xmlns="http://www.w3.org/2000/svg" viewBox="0 0 400 500" width="400" height="500">
  <rect width="400" height="500" fill="#f0f5f2"/>
  <g transform="translate(200,250)" fill="none" stroke="#333" stroke-width="3" stroke-linecap="round" stroke-linejoin="round">
    <!-- Sports tee -->
    <path d="M-60,-75 L-85,-25 L-65,-8 L-50,-20 L-50,80 Q-50,88 -42,88 L42,88 Q50,88 50,80 L50,-20 L65,-8 L85,-25 L60,-75 L28,-75 Q15,-50 0,-55 Q-15,-50 -28,-75 Z" fill="#333" opacity="0.15"/>
    <path d="M-60,-75 L-85,-25 L-65,-8 L-50,-20 L-50,80 Q-50,88 -42,88 L42,88 Q50,88 50,80 L50,-20 L65,-8 L85,-25 L60,-75 L28,-75 Q15,-50 0,-55 Q-15,-50 -28,-75 Z"/>
    <!-- Round neck -->
    <path d="M-28,-75 Q0,-48 28,-75"/>
    <!-- Raglan seam lines -->
    <path d="M-28,-75 L-50,-20" stroke-dasharray="5,4" stroke-width="1.5" opacity="0.4"/>
    <path d="M28,-75 L50,-20" stroke-dasharray="5,4" stroke-width="1.5" opacity="0.4"/>
    <!-- Mesh/ventilation dots -->
    <circle cx="-20" cy="10" r="2" fill="#333" opacity="0.2"/>
    <circle cx="0" cy="10" r="2" fill="#333" opacity="0.2"/>
    <circle cx="20" cy="10" r="2" fill="#333" opacity="0.2"/>
    <circle cx="-20" cy="30" r="2" fill="#333" opacity="0.2"/>
    <circle cx="0" cy="30" r="2" fill="#333" opacity="0.2"/>
    <circle cx="20" cy="30" r="2" fill="#333" opacity="0.2"/>
  </g>
</svg>