<svg xmlns="http://www.w3.org/2000/svg" viewBox="0 0 400 500" width="400" height="500">
  <rect width="400" height="500" fill="#f2f5f2"/>
  <g transform="translate(200,250)" fill="none" stroke="#333" stroke-width="3" stroke-linecap="round" stroke-linejoin="round">
    <!-- Track pants -->
    <path d="M-50,-95 Q-55,-95 -55,-90 L-58,-10 Q-60,30 -62,70 L-62,85 Q-52,90 -42,85 L-38,70 Q-28,15 -8,5 Q12,15 18,70 L22,85 Q32,90 42,85 L42,70 Q40,30 38,-10 L35,-90 Q35,-95 30,-95 Z" fill="#333" opacity="0.15"/>
    <path d="M-50,-95 Q-55,-95 -55,-90 L-58,-10 Q-60,30 -62,70 L-62,85 Q-52,90 -42,85 L-38,70 Q-28,15 -8,5 Q12,15 18,70 L22,85 Q32,90 42,85 L42,70 Q40,30 38,-10 L35,-90 Q35,-95 30,-95 Z"/>
    <!-- Waistband -->
    <path d="M-55,-80 L35,-80"/>
    <!-- Side stripes -->
    <path d="M-55,-80 L-58,-10 Q-60,30 -62,70" stroke-width="6" opacity="0.12"/>
    <path d="M35,-80 L38,-10 Q40,30 42,70" stroke-width="6" opacity="0.12"/>
    <!-- Zip at ankles -->
    <path d="M-55,70 L-48,85" stroke-width="2"/>
    <path d="M35,70 L28,85" stroke-width="2"/>
  </g>
</svg>