<svg xmlns="http://www.w3.org/2000/svg" viewBox="0 0 400 500" width="400" height="500">
  <rect width="400" height="500" fill="#f0f2f5"/>
  <g transform="translate(200,250)" fill="none" stroke="#333" stroke-width="3" stroke-linecap="round" stroke-linejoin="round">
    <!-- Skirt -->
    <path d="M-45,-50 Q-50,-50 -50,-45 L-50,-35 Q-55,0 -70,70 Q-70,80 -60,80 L60,80 Q70,80 70,70 Q55,0 50,-35 L50,-45 Q50,-50 45,-50 Z" fill="#333" opacity="0.15"/>
    <path d="M-45,-50 Q-50,-50 -50,-45 L-50,-35 Q-55,0 -70,70 Q-70,80 -60,80 L60,80 Q70,80 70,70 Q55,0 50,-35 L50,-45 Q50,-50 45,-50 Z"/>
    <!-- Waistband -->
    <path d="M-50,-35 L50,-35"/>
    <!-- Pleats/flow -->
    <path d="M-30,-35 Q-35,20 -45,70" stroke-width="1.5" opacity="0.3"/>
    <path d="M-10,-35 Q-12,20 -15,70" stroke-width="1.5" opacity="0.3"/>
    <path d="M10,-35 Q12,20 15,70" stroke-width="1.5" opacity="0.3"/>
    <path d="M30,-35 Q35,20 45,70" stroke-width="1.5" opacity="0.3"/>
  </g>
</svg>