<svg xmlns="http://www.w3.org/2000/svg" viewBox="0 0 400 500" width="400" height="500">
  <rect width="400" height="500" fill="#f5f0f3"/>
  <g transform="translate(200,250)" fill="none" stroke="#333" stroke-width="3" stroke-linecap="round" stroke-linejoin="round">
    <!-- Crop top -->
    <path d="M-40,-65 L-60,-30 L-48,-18 L-38,-28 L-38,20 Q-38,28 -30,28 L30,28 Q38,28 38,20 L38,-28 L48,-18 L60,-30 L40,-65 L18,-65 Q8,-48 0,-52 Q-8,-48 -18,-65 Z" fill="#333" opacity="0.15"/>
    <path d="M-40,-65 L-60,-30 L-48,-18 L-38,-28 L-38,20 Q-38,28 -30,28 L30,28 Q38,28 38,20 L38,-28 L48,-18 L60,-30 L40,-65 L18,-65 Q8,-48 0,-52 Q-8,-48 -18,-65 Z"/>
    <!-- Neckline -->
    <path d="M-18,-65 Q0,-42 18,-65"/>
    <!-- Cropped hem detail -->
    <path d="M-38,20 Q-20,32 0,20 Q20,32 38,20" stroke-width="1.5" opacity="0.4"/>
  </g>
</svg>