<svg xmlns="http://www.w3.org/2000/svg" viewBox="0 0 400 500" width="400" height="500">
  <rect width="400" height="500" fill="#f5f3f5"/>
  <g transform="translate(200,250)" fill="none" stroke="#333" stroke-width="3" stroke-linecap="round" stroke-linejoin="round">
    <!-- Blouse -->
    <path d="M-50,-80 L-75,-40 L-60,-22 L-45,-35 L-45,70 Q-45,80 -35,80 L35,80 Q45,80 45,70 L45,-35 L60,-22 L75,-40 L50,-80 L20,-80 Q10,-58 0,-62 Q-10,-58 -20,-80 Z" fill="#333" opacity="0.15"/>
    <path d="M-50,-80 L-75,-40 L-60,-22 L-45,-35 L-45,70 Q-45,80 -35,80 L35,80 Q45,80 45,70 L45,-35 L60,-22 L75,-40 L50,-80 L20,-80 Q10,-58 0,-62 Q-10,-58 -20,-80 Z"/>
    <!-- V-neck with bow -->
    <path d="M-20,-80 Q-10,-58 0,-62 Q10,-58 20,-80"/>
    <!-- Bow -->
    <path d="M-8,-62 Q-15,-55 -8,-48" fill="#333" opacity="0.2"/>
    <path d="M8,-62 Q15,-55 8,-48" fill="#333" opacity="0.2"/>
    <circle cx="0" cy="-55" r="3" fill="#333"/>
    <!-- Puff sleeve detail -->
    <path d="M-60,-55 Q-70,-45 -60,-35" stroke-width="1.5" opacity="0.4"/>
    <path d="M60,-55 Q70,-45 60,-35" stroke-width="1.5" opacity="0.4"/>
    <!-- Hem ruffle -->
    <path d="M-45,75 Q-30,85 -15,75 Q0,85 15,75 Q30,85 45,75" stroke-width="1.5" opacity="0.4"/>
  </g>
</svg>